<?xml version="1.0" standalone="no"?>
<!DOCTYPE svg PUBLIC "-//W3C//DTD SVG 20010904//EN"
 "http://www.w3.org/TR/2001/REC-SVG-20010904/DTD/svg10.dtd">
<svg version="1.0" xmlns="http://www.w3.org/2000/svg"
 width="500.000000pt" height="500.000000pt" viewBox="0 0 500.000000 500.000000"
 preserveAspectRatio="xMidYMid meet">

<g transform="translate(0.000000,500.000000) scale(0.100000,-0.100000)"
fill="#000000" stroke="none">
<path d="M1135 3448 c-2 -7 -6 -107 -8 -223 -7 -303 -42 -483 -131 -679 -41
-91 -134 -232 -200 -303 -47 -51 -48 -55 -42 -98 4 -25 9 -45 11 -45 2 0 23
18 47 40 94 87 232 130 354 111 78 -12 121 -32 179 -83 44 -39 155 -194 155
-217 0 -20 -63 -70 -135 -106 -130 -65 -304 -69 -432 -10 -98 44 -190 164
-221 285 -25 95 -32 227 -32 582 l0 368 40 0 c22 0 40 5 40 10 0 6 -102 10
-285 10 -172 0 -285 -4 -285 -9 0 -6 19 -11 43 -13 l42 -3 6 -360 c7 -407 8
-415 86 -574 114 -232 313 -357 623 -392 203 -23 373 17 497 118 24 19 47 32
53 28 5 -3 22 -28 37 -55 25 -44 30 -49 69 -52 96 -7 97 -10 -33 182 -175 259
-249 325 -394 356 -103 22 -171 13 -302 -41 -13 -5 -5 10 22 46 107 141 203
398 233 622 6 48 15 84 18 80 4 -5 12 -51 19 -103 37 -277 112 -472 275 -708
39 -57 121 -176 182 -265 l111 -162 88 -3 88 -3 -34 44 c-384 502 -467 639
-544 892 -50 166 -78 352 -91 613 l-7 132 -69 0 c-46 0 -70 -4 -73 -12z"/>
<path d="M1630 3081 c0 -6 19 -11 43 -13 l42 -3 3 -325 c2 -317 -1 -365 -33
-510 -4 -18 2 -34 19 -55 l25 -30 24 55 c13 30 29 75 35 100 11 44 33 248 30
280 -1 8 0 122 0 253 l2 237 40 0 c22 0 40 5 40 10 0 6 -52 10 -135 10 -78 0
-135 -4 -135 -9z"/>
<path d="M3868 2883 c-12 -15 -13 -53 -8 -233 7 -238 10 -253 77 -316 126
-119 325 -79 403 82 18 36 20 61 20 233 l0 192 -25 23 c-37 35 -135 50 -152
24 -4 -7 -8 -102 -8 -210 0 -185 -1 -198 -20 -212 -31 -24 -71 -20 -94 10 -19
25 -21 40 -21 196 0 93 -4 178 -10 188 -21 39 -135 55 -162 23z m102 -238 c0
-179 4 -198 55 -245 22 -21 37 -25 85 -25 48 0 63 4 85 25 51 47 55 66 55 245
0 140 2 165 15 165 13 0 15 -26 15 -173 0 -172 0 -173 -27 -215 -63 -96 -188
-108 -265 -26 -42 46 -48 75 -48 250 0 139 2 164 15 164 13 0 15 -25 15 -165z"/>
<path d="M2845 2880 c-11 -18 -5 -551 6 -571 12 -22 60 -49 88 -49 12 0 35 13
52 28 25 23 33 38 36 79 l5 50 62 5 c136 11 236 110 236 233 0 70 -18 113 -68
163 -59 59 -110 72 -273 72 -85 0 -140 -4 -144 -10z m321 -92 c26 -12 55 -35
65 -52 26 -43 25 -119 -2 -163 -32 -51 -70 -66 -181 -71 l-97 -4 -3 -76 c-2
-49 -7 -77 -15 -80 -10 -3 -13 48 -13 232 l0 236 100 0 c82 0 109 -4 146 -22z"/>
<path d="M2950 2655 l0 -125 85 0 c94 0 129 12 164 56 29 36 28 102 -1 139
-31 40 -77 55 -168 55 l-80 0 0 -125z m178 33 c16 -16 15 -53 -3 -68 -8 -6
-32 -14 -55 -17 l-40 -6 0 52 0 51 43 0 c24 0 48 -5 55 -12z"/>
<path d="M4491 2881 c-12 -8 -14 -55 -12 -268 1 -145 6 -272 12 -291 11 -32
51 -62 84 -62 54 0 95 54 95 126 0 34 0 34 49 34 143 0 251 102 251 239 0 103
-58 181 -159 216 -50 17 -295 21 -320 6z m319 -93 c57 -29 95 -97 85 -151 -19
-97 -81 -136 -217 -137 l-88 0 0 -80 c0 -64 -3 -80 -15 -80 -13 0 -15 33 -15
235 l0 235 103 0 c87 0 110 -4 147 -22z"/>
<path d="M4590 2655 l0 -125 85 0 c132 0 184 35 185 123 0 91 -53 127 -190
127 l-80 0 0 -125z m190 0 c0 -29 -4 -35 -35 -45 -19 -6 -45 -10 -57 -8 -20 3
-23 9 -24 48 -1 43 0 45 30 50 17 3 43 2 59 -3 22 -7 27 -15 27 -42z"/>
<path d="M2413 2870 c-12 -5 -26 -22 -29 -37 -7 -28 -42 -113 -135 -335 -27
-64 -49 -129 -49 -146 0 -38 32 -79 69 -87 35 -7 85 15 101 45 9 18 21 20 96
20 82 0 87 -1 113 -29 16 -17 39 -33 52 -36 52 -13 112 35 112 89 0 37 -190
486 -215 507 -22 20 -77 24 -115 9z m162 -285 c47 -115 85 -217 85 -227 0 -30
-18 -20 -31 17 l-13 35 -143 0 -143 0 -17 -35 c-18 -37 -33 -46 -33 -19 0 9
29 85 64 168 36 83 74 176 86 206 25 64 40 84 52 72 4 -4 46 -102 93 -217z"/>
<path d="M2445 2683 c-15 -38 -38 -90 -51 -118 -12 -27 -29 -67 -38 -87 l-15
-38 129 0 130 0 -19 48 c-65 162 -103 257 -105 260 -2 1 -16 -28 -31 -65z m45
-154 c0 -13 -7 -19 -21 -19 -11 0 -18 3 -16 8 2 4 7 15 10 25 8 22 27 13 27
-14z"/>
<path d="M3455 2593 c-78 -19 -86 -137 -10 -168 42 -18 227 -20 274 -4 31 11
61 52 61 84 0 36 -30 74 -68 84 -37 11 -219 13 -257 4z m243 -85 c-3 -9 -35
-13 -113 -13 -78 0 -110 4 -112 13 -4 9 23 12 112 12 89 0 116 -3 113 -12z"/>
</g>
</svg>
